<svg xmlns="http://www.w3.org/2000/svg" version="1.1" width="512" height="512" x="0" y="0" viewBox="0 0 512 512"
     style="enable-background:new 0 0 512 512" xml:space="preserve" class=""><g><path fill="#c2f6ff" d="M451.997 194.571c18.217-.004 32.989 14.761 32.993 32.978v225.014h-458V227.652c-.004-18.217 14.761-32.989 32.978-32.993z" opacity="1"></path><path fill="#909ec0" d="M56.99 227.402h398v225.161h-398z" opacity="1"></path><path fill="#808dab" d="M56.99 227.402h351.882l.051 225.161h46.067V227.402z" opacity="1" data-original="#808dab" class=""></path><path fill="#8ee6f3" d="m474.913 501.066-437.723.098c-16.369.004-29.642-13.263-29.645-29.632l-.004-18.969h497l.004 18.857c.003 16.369-13.263 29.642-29.632 29.646z" opacity="1" data-original="#8ee6f3"></path><path fill="#72d1fb" d="M7.541 452.563h455.336l.004 19.042c.003 15.284-11.563 27.864-26.421 29.469l38.453-.009c16.369-.004 29.636-13.276 29.632-29.645l-.004-18.857z" opacity="1" data-original="#72d1fb"></path><path fill="#c2f6ff" d="m223.541 452.563.002 8.164c.002 9.331 7.568 16.893 16.898 16.891l31.211-.007c9.331-.002 16.893-7.568 16.891-16.898l-.002-8.15z" opacity="1" data-original="#c2f6ff"></path><path fill="#ffd36c" d="M164.017 115.635c-25.434.006-46.048 20.629-46.042 46.063l.024 106.895c.006 25.434 20.629 46.048 46.063 46.042l.014 64 63.986-64.014 116.895-.026c25.434-.006 46.048-20.629 46.042-46.063l-.199-152.897z" opacity="1" data-original="#ffd36c" class=""></path><path fill="#fa9084" d="m339.161 226.599-41.962 14.989 1.031-44.547 127.1-176.002c8.162-11.303 23.942-13.849 35.244-5.686 11.303 8.162 13.849 23.942 5.686 35.244z" opacity="1" data-original="#fa9084" class=""></path><path fill="#ff6cb5" d="M460.575 15.353c-11.303-8.162-27.082-5.617-35.244 5.686L406.76 46.755l40.423 30.261 19.078-26.419c8.163-11.303 5.617-27.082-5.686-35.244z" opacity="1" data-original="#ff6cb5"></path><path fill="#ff956a" d="m297.199 241.588 41.962-14.989-40.931-29.558z" opacity="1" data-original="#ff956a"></path><path d="M504.5 445.743h-12V227.728c0-22.324-18.161-40.485-40.485-40.485H398.5v-29.807l49.669-68.747a19.331 19.331 0 0 1 2.965 7.593 19.294 19.294 0 0 1-3.433 14.464l-32.077 44.399c-5.6 7.753 6.531 16.576 12.158 8.785l32.077-44.399c5.386-7.453 7.546-16.557 6.083-25.635-1.09-6.768-4.099-12.916-8.647-17.839l15.095-20.892c5.122-7.09 7.177-15.749 5.786-24.385-1.392-8.635-6.063-16.211-13.152-21.333-14.633-10.571-35.144-7.269-45.717 7.365l-66.487 92.025a53.915 53.915 0 0 0-7.873-.594H164.053c-29.529 0-53.553 24.023-53.553 53.553v25.447H59.985c-22.323 0-40.485 18.162-40.485 40.485v133.265c0 9.675 15 9.675 15 0V227.728c0-14.053 11.433-25.485 25.485-25.485H110.5v17.832H57a7.499 7.499 0 0 0-7.5 7.5v218.168h-15v-44.75c0-9.675-15-9.675-15 0v44.75h-12a7.499 7.499 0 0 0-7.5 7.5v18.361c0 20.479 16.66 37.139 37.139 37.139H410c9.675 0 9.675-15 0-15H37.139c-12.207 0-22.139-9.932-22.139-22.139v-10.861h201v.105c0 13.451 10.943 24.395 24.395 24.395h31.211c13.451 0 24.395-10.943 24.395-24.395v-.105h201v10.861c0 12.207-9.932 22.139-22.139 22.139H452c-9.675 0-9.675 15 0 15h22.861c20.479 0 37.139-16.66 37.139-37.139v-18.361c0-4.143-3.357-7.5-7.5-7.5zM305.412 211.607l17.81 12.868-18.263 6.519zm32.072 4.667-28.766-20.783 99.271-137.4 28.766 20.783zm93.982-190.677c5.729-7.931 16.845-9.722 24.775-3.991a17.628 17.628 0 0 1 7.126 11.561 17.624 17.624 0 0 1-3.135 13.213L445.54 66.715l-28.766-20.783zM281 460.848c0 5.18-4.215 9.395-9.395 9.395h-31.211c-5.18 0-9.395-4.215-9.395-9.395v-.105h50v.105zM64.5 445.743V235.075h46v33.615c0 26.984 20.062 49.371 46.053 53.029v57.023a7.499 7.499 0 0 0 12.804 5.304l61.803-61.804H306c9.675 0 9.675-15 0-15h-77.947c-1.989 0-3.896.79-5.304 2.196l-51.196 51.197v-45.894c0-4.143-3.357-7.5-7.5-7.5-21.258 0-38.553-17.295-38.553-38.553V161.795c0-21.258 17.295-38.553 38.553-38.553h178.359l-50.244 69.543c-.88 1.218-1.367 2.72-1.419 4.218l-1.041 44.547c-.119 5.118 5.17 8.97 10.02 7.238l41.965-14.979c1.403-.491 2.689-1.468 3.558-2.671l38.25-52.941v90.493c0 21.258-17.295 38.553-38.553 38.553-9.675 0-9.675 15 0 15 29.529 0 53.553-24.023 53.553-53.553v-33.615h49v210.668zm398 0V227.575c0-4.143-3.357-7.5-7.5-7.5h-56.5v-17.832h53.515c14.053 0 25.485 11.433 25.485 25.485v218.015z" fill="#000000" opacity="1" data-original="#000000" class=""></path><path d="M259 234.225h-83c-4.143 0-7.5 3.357-7.5 7.5s3.357 7.5 7.5 7.5h83c4.143 0 7.5-3.357 7.5-7.5s-3.357-7.5-7.5-7.5zM259 181.252h-83c-4.143 0-7.5 3.357-7.5 7.5s3.357 7.5 7.5 7.5h83c4.143 0 7.5-3.357 7.5-7.5s-3.357-7.5-7.5-7.5z" fill="#000000" opacity="1" class=""></path></g></svg>
